%TF.GenerationSoftware,KiCad,Pcbnew,7.0.9*%
%TF.CreationDate,2023-12-12T23:50:20-05:00*%
%TF.ProjectId,attiny85,61747469-6e79-4383-952e-6b696361645f,rev?*%
%TF.SameCoordinates,Original*%
%TF.FileFunction,Legend,Top*%
%TF.FilePolarity,Positive*%
%FSLAX46Y46*%
G04 Gerber Fmt 4.6, Leading zero omitted, Abs format (unit mm)*
G04 Created by KiCad (PCBNEW 7.0.9) date 2023-12-12 23:50:20*
%MOMM*%
%LPD*%
G01*
G04 APERTURE LIST*
%ADD10C,0.150000*%
%ADD11C,0.120000*%
G04 APERTURE END LIST*
D10*
X155309819Y-97281904D02*
X156119342Y-97281904D01*
X156119342Y-97281904D02*
X156214580Y-97234285D01*
X156214580Y-97234285D02*
X156262200Y-97186666D01*
X156262200Y-97186666D02*
X156309819Y-97091428D01*
X156309819Y-97091428D02*
X156309819Y-96900952D01*
X156309819Y-96900952D02*
X156262200Y-96805714D01*
X156262200Y-96805714D02*
X156214580Y-96758095D01*
X156214580Y-96758095D02*
X156119342Y-96710476D01*
X156119342Y-96710476D02*
X155309819Y-96710476D01*
X155405057Y-96281904D02*
X155357438Y-96234285D01*
X155357438Y-96234285D02*
X155309819Y-96139047D01*
X155309819Y-96139047D02*
X155309819Y-95900952D01*
X155309819Y-95900952D02*
X155357438Y-95805714D01*
X155357438Y-95805714D02*
X155405057Y-95758095D01*
X155405057Y-95758095D02*
X155500295Y-95710476D01*
X155500295Y-95710476D02*
X155595533Y-95710476D01*
X155595533Y-95710476D02*
X155738390Y-95758095D01*
X155738390Y-95758095D02*
X156309819Y-96329523D01*
X156309819Y-96329523D02*
X156309819Y-95710476D01*
X155309819Y-84581904D02*
X156119342Y-84581904D01*
X156119342Y-84581904D02*
X156214580Y-84534285D01*
X156214580Y-84534285D02*
X156262200Y-84486666D01*
X156262200Y-84486666D02*
X156309819Y-84391428D01*
X156309819Y-84391428D02*
X156309819Y-84200952D01*
X156309819Y-84200952D02*
X156262200Y-84105714D01*
X156262200Y-84105714D02*
X156214580Y-84058095D01*
X156214580Y-84058095D02*
X156119342Y-84010476D01*
X156119342Y-84010476D02*
X155309819Y-84010476D01*
X156309819Y-83010476D02*
X156309819Y-83581904D01*
X156309819Y-83296190D02*
X155309819Y-83296190D01*
X155309819Y-83296190D02*
X155452676Y-83391428D01*
X155452676Y-83391428D02*
X155547914Y-83486666D01*
X155547914Y-83486666D02*
X155595533Y-83581904D01*
X163351666Y-86874819D02*
X163351666Y-87589104D01*
X163351666Y-87589104D02*
X163304047Y-87731961D01*
X163304047Y-87731961D02*
X163208809Y-87827200D01*
X163208809Y-87827200D02*
X163065952Y-87874819D01*
X163065952Y-87874819D02*
X162970714Y-87874819D01*
X164351666Y-87874819D02*
X163780238Y-87874819D01*
X164065952Y-87874819D02*
X164065952Y-86874819D01*
X164065952Y-86874819D02*
X163970714Y-87017676D01*
X163970714Y-87017676D02*
X163875476Y-87112914D01*
X163875476Y-87112914D02*
X163780238Y-87160533D01*
D11*
%TO.C,U2*%
X154855000Y-99170000D02*
X154855000Y-97520000D01*
X154855000Y-93870000D02*
X144575000Y-93870000D01*
X144575000Y-99170000D02*
X154855000Y-99170000D01*
X154855000Y-95520000D02*
X154855000Y-93870000D01*
X144575000Y-93870000D02*
X144575000Y-99170000D01*
X154855000Y-95520000D02*
G75*
G03*
X154855000Y-97520000I0J-1000000D01*
G01*
%TO.C,U1*%
X154855000Y-86470000D02*
X154855000Y-84820000D01*
X154855000Y-81170000D02*
X144575000Y-81170000D01*
X144575000Y-86470000D02*
X154855000Y-86470000D01*
X154855000Y-82820000D02*
X154855000Y-81170000D01*
X144575000Y-81170000D02*
X144575000Y-86470000D01*
X154855000Y-82820000D02*
G75*
G03*
X154855000Y-84820000I0J-1000000D01*
G01*
%TO.C,J1*%
X165015000Y-85090000D02*
X165015000Y-86420000D01*
X165015000Y-81220000D02*
X162355000Y-81220000D01*
X165015000Y-83820000D02*
X165015000Y-81220000D01*
X165015000Y-83820000D02*
X162355000Y-83820000D01*
X165015000Y-86420000D02*
X163685000Y-86420000D01*
X162355000Y-83820000D02*
X162355000Y-81220000D01*
%TD*%
M02*
