%TF.GenerationSoftware,KiCad,Pcbnew,7.0.9*%
%TF.CreationDate,2023-12-12T23:50:20-05:00*%
%TF.ProjectId,attiny85,61747469-6e79-4383-952e-6b696361645f,rev?*%
%TF.SameCoordinates,Original*%
%TF.FileFunction,Copper,L1,Top*%
%TF.FilePolarity,Positive*%
%FSLAX46Y46*%
G04 Gerber Fmt 4.6, Leading zero omitted, Abs format (unit mm)*
G04 Created by KiCad (PCBNEW 7.0.9) date 2023-12-12 23:50:20*
%MOMM*%
%LPD*%
G01*
G04 APERTURE LIST*
%TA.AperFunction,ComponentPad*%
%ADD10R,1.600000X1.600000*%
%TD*%
%TA.AperFunction,ComponentPad*%
%ADD11O,1.600000X1.600000*%
%TD*%
%TA.AperFunction,ComponentPad*%
%ADD12R,1.700000X1.700000*%
%TD*%
%TA.AperFunction,ComponentPad*%
%ADD13O,1.700000X1.700000*%
%TD*%
%TA.AperFunction,Conductor*%
%ADD14C,0.250000*%
%TD*%
G04 APERTURE END LIST*
D10*
%TO.P,U2,1,D5(A0)/ADC0/PB5/~{RESET}*%
%TO.N,unconnected-(U2-D5(A0){slash}ADC0{slash}PB5{slash}~{RESET}-Pad1)*%
X153525000Y-92710000D03*
D11*
%TO.P,U2,2,D3(A3)/ADC3/PB3*%
%TO.N,unconnected-(U2-D3(A3){slash}ADC3{slash}PB3-Pad2)*%
X150985000Y-92710000D03*
%TO.P,U2,3,D4(A2)/ADC2/PB4*%
%TO.N,unconnected-(U2-D4(A2){slash}ADC2{slash}PB4-Pad3)*%
X148445000Y-92710000D03*
%TO.P,U2,4,GND*%
%TO.N,GND*%
X145905000Y-92710000D03*
%TO.P,U2,5,D0/MOSI/SDA/PB0*%
%TO.N,Net-(J1-Pin_2)*%
X145905000Y-100330000D03*
%TO.P,U2,6,D1/MISO/PB1*%
%TO.N,unconnected-(U2-D1{slash}MISO{slash}PB1-Pad6)*%
X148445000Y-100330000D03*
%TO.P,U2,7,D2(A1)/SCL/SCK/PB2*%
%TO.N,Net-(J1-Pin_1)*%
X150985000Y-100330000D03*
%TO.P,U2,8,VCC*%
%TO.N,VCC*%
X153525000Y-100330000D03*
%TD*%
D10*
%TO.P,U1,1,D5(A0)/ADC0/PB5/~{RESET}*%
%TO.N,unconnected-(U1-D5(A0){slash}ADC0{slash}PB5{slash}~{RESET}-Pad1)*%
X153525000Y-80010000D03*
D11*
%TO.P,U1,2,D3(A3)/ADC3/PB3*%
%TO.N,unconnected-(U1-D3(A3){slash}ADC3{slash}PB3-Pad2)*%
X150985000Y-80010000D03*
%TO.P,U1,3,D4(A2)/ADC2/PB4*%
%TO.N,unconnected-(U1-D4(A2){slash}ADC2{slash}PB4-Pad3)*%
X148445000Y-80010000D03*
%TO.P,U1,4,GND*%
%TO.N,GND*%
X145905000Y-80010000D03*
%TO.P,U1,5,D0/MOSI/SDA/PB0*%
%TO.N,Net-(J1-Pin_2)*%
X145905000Y-87630000D03*
%TO.P,U1,6,D1/MISO/PB1*%
%TO.N,unconnected-(U1-D1{slash}MISO{slash}PB1-Pad6)*%
X148445000Y-87630000D03*
%TO.P,U1,7,D2(A1)/SCL/SCK/PB2*%
%TO.N,Net-(J1-Pin_1)*%
X150985000Y-87630000D03*
%TO.P,U1,8,VCC*%
%TO.N,VCC*%
X153525000Y-87630000D03*
%TD*%
D12*
%TO.P,J1,1,Pin_1*%
%TO.N,Net-(J1-Pin_1)*%
X163685000Y-85090000D03*
D13*
%TO.P,J1,2,Pin_2*%
%TO.N,Net-(J1-Pin_2)*%
X163685000Y-82550000D03*
%TD*%
D14*
%TO.N,Net-(J1-Pin_1)*%
X153525000Y-85090000D02*
X163685000Y-85090000D01*
X150985000Y-87630000D02*
X153525000Y-85090000D01*
%TO.N,Net-(J1-Pin_2)*%
X150985000Y-82550000D02*
X163685000Y-82550000D01*
X145905000Y-87630000D02*
X150985000Y-82550000D01*
%TO.N,VCC*%
X152400000Y-88755000D02*
X153525000Y-87630000D01*
X152400000Y-99205000D02*
X152400000Y-88755000D01*
X153525000Y-100330000D02*
X152400000Y-99205000D01*
%TO.N,Net-(J1-Pin_2)*%
X144780000Y-88755000D02*
X145905000Y-87630000D01*
X144780000Y-99205000D02*
X144780000Y-88755000D01*
X145905000Y-100330000D02*
X144780000Y-99205000D01*
%TO.N,Net-(J1-Pin_1)*%
X149860000Y-99205000D02*
X149860000Y-88755000D01*
X149860000Y-88755000D02*
X150985000Y-87630000D01*
X150985000Y-100330000D02*
X149860000Y-99205000D01*
%TD*%
M02*
